<svg width="122" height="22" viewBox="0 0 122 22" fill="none" xmlns="http://www.w3.org/2000/svg">
<path d="M24 10.2369C24 13.9908 21.2465 16.8881 17.8914 16.8881C16.0636 16.8881 14.737 16.2084 13.8357 15.0494V21.5751H10.606V3.93785H13.8357V5.42365C14.737 4.26473 16.0636 3.58423 17.8914 3.58423C21.2465 3.58497 24 6.48229 24 10.2369ZM20.7704 10.2369C20.7704 8.12038 19.2939 6.68436 17.2905 6.68436C15.3128 6.68436 13.8357 8.12038 13.8357 10.2369C13.8357 12.3534 15.3121 13.7895 17.2905 13.7895C19.2932 13.7895 20.7704 12.3534 20.7704 10.2369Z" fill="#192451"/>
<path d="M25.11 10.2109C25.11 6.47052 28.0396 3.58423 31.7208 3.58423C35.402 3.58423 38.356 6.47052 38.356 10.2109C38.356 13.9512 35.4028 16.8367 31.7208 16.8367C28.0389 16.8367 25.11 13.9504 25.11 10.2109ZM35.1259 10.2109C35.1259 8.17787 33.6493 6.74657 31.7208 6.74657C29.8175 6.74657 28.3401 8.17787 28.3401 10.2109C28.3401 12.2438 29.8167 13.6744 31.7208 13.6744C33.6485 13.6744 35.1259 12.2438 35.1259 10.2109Z" fill="#192451"/>
<path d="M40.132 3.95435H43.388V16.4665H40.132V3.95435Z" fill="#192451"/>
<path d="M57.374 8.77204V16.4666H54.1443V9.17258C54.1443 7.46844 53.1181 6.59124 51.6661 6.59124C50.0885 6.59124 48.9117 7.51869 48.9117 9.69949V16.4666H45.682V3.93452H48.9117V5.33862C49.6625 4.2109 50.9647 3.58423 52.642 3.58423C55.2959 3.58349 57.374 5.43839 57.374 8.77204Z" fill="#192451"/>
<path d="M63.8771 7.01679V12.2285C63.8771 13.5812 64.851 13.6064 66.698 13.5059V16.4383C62.1795 16.9392 60.6564 15.6108 60.6564 12.227V7.01679H58.484V3.90857H60.6601V1.3781L63.8807 0.400635V3.90857H66.6965V7.01679H63.8771Z" fill="#192451"/>
<path d="M78.316 12.822C78.316 15.5323 75.9637 16.8367 73.2859 16.8367C70.783 16.8367 68.9324 15.7831 68.03 13.8512L70.8339 12.27C71.1844 13.2985 72.0352 13.8978 73.2866 13.8978C74.3123 13.8978 75.0133 13.5464 75.0133 12.819C75.0133 10.987 68.5568 11.9911 68.5568 7.57456C68.5568 5.01447 70.7336 3.58423 73.3117 3.58423C75.3387 3.58423 77.0904 4.51281 78.0659 6.2442L75.3136 7.74992C74.938 6.94712 74.237 6.46987 73.3117 6.46987C72.5104 6.46987 71.8603 6.82133 71.8603 7.49909C71.8596 9.35848 78.316 8.20422 78.316 12.822Z" fill="#192451"/>
<path d="M92.968 10.2369C92.968 13.9908 90.2145 16.8881 86.8594 16.8881C85.0316 16.8881 83.705 16.2084 82.8037 15.0494V21.5751H79.574V3.93785H82.8037V5.42365C83.705 4.26473 85.0316 3.58423 86.8594 3.58423C90.2145 3.58497 92.968 6.48229 92.968 10.2369ZM89.7384 10.2369C89.7384 8.12038 88.2619 6.68436 86.2585 6.68436C84.2808 6.68436 82.8037 8.12038 82.8037 10.2369C82.8037 12.3534 84.2801 13.7895 86.2585 13.7895C88.2612 13.7895 89.7384 12.3534 89.7384 10.2369Z" fill="#192451"/>
<path d="M107.472 3.93502V16.4852H104.242V15.0051C103.341 16.1344 101.988 16.8367 100.161 16.8367C96.8319 16.8367 94.078 13.9504 94.078 10.2109C94.078 6.47126 96.8319 3.58423 100.161 3.58423C101.988 3.58423 103.341 4.2873 104.242 5.41665V3.9365L107.472 3.93502ZM104.242 10.2101C104.242 8.10164 102.766 6.67108 100.762 6.67108C98.7843 6.67108 97.3073 8.10164 97.3073 10.2101C97.3073 12.3186 98.7835 13.7491 100.762 13.7491C102.766 13.7491 104.242 12.3186 104.242 10.2101Z" fill="#192451"/>
<path d="M121.606 3.95435L117.048 16.5311C115.745 20.1535 113.616 21.7376 110.435 21.5619V18.5421C112.213 18.5673 113.115 17.8127 113.716 16.1271L108.582 3.95435H112.114L115.369 12.4045L118.15 3.95435H121.606Z" fill="#192451"/>
<path d="M7.35 10.2476C7.35 8.13036 5.86905 6.69385 3.85941 6.69385C1.87568 6.69385 0.393997 8.13036 0.393997 10.2476C0.393997 12.3648 1.87494 13.8013 3.85941 13.8013C5.86905 13.8013 7.35 12.3648 7.35 10.2476Z" fill="#A78FFF"/>
</svg>
